<svg version="1.0" xmlns="http://www.w3.org/2000/svg" viewBox="179 166 441 441">
  <metadata>
    <rdf:RDF xmlns:rdf="http://www.w3.org/1999/02/22-rdf-syntax-ns#" xmlns:rdfs="http://www.w3.org/2000/01/rdf-schema#" xmlns:dc="http://purl.org/dc/elements/1.1/">
      <rdf:Description dc:format="image/svg+xml" dc:Label="1" dc:ContentProducer="001191330110MACRLGPT8B00000" dc:ProduceID="412989321" dc:ReservedCode1="tQULYhJyEh8zXiP9uDOejscT3N+XOUmlrDpF4KnhZiI=" dc:ContentPropagator="001191330110MACRLGPT8B00000" dc:PropagateID="412989321" dc:ReservedCode2="tQULYhJyEh8zXiP9uDOejscT3N+XOUmlrDpF4KnhZiI="/>
    </rdf:RDF>
  </metadata>
  <g transform="translate(0.000000,800.000000) scale(0.100000,-0.100000)" fill="#000000" stroke="none">
    <path d="M2754 5896 c-161 -51 -290 -184 -334 -346 -9 -34 -13 -382 -14 -1450 0 -773 1 -1464 4 -1536 5 -130 6 -133 47 -216 65 -130 170 -219 298 -252 52 -14 206 -16 1251 -16 1167 0 1193 0 1257 20 157 49 291 196 326 358 8 38 11 405 11 1265 l0 1212 -488 488 -487 487 -915 -1 c-710 0 -924 -3 -956 -13z m1706 -533 c0 -245 4 -402 11 -427 14 -51 82 -123 128 -136 21 -6 197 -10 434 -10 l397 0 -2 -1157 -3 -1158 -24 -50 c-32 -63 -93 -124 -156 -156 l-50 -24 -1190 0 -1190 0 -47 22 c-107 49 -177 147 -187 262 -3 36 -4 725 -1 1531 l5 1465 25 48 c44 86 126 147 224 167 23 4 398 8 834 9 l792 1 0 -387z m864 -405 c-3 -4 -151 -8 -328 -8 -294 0 -326 2 -345 18 -21 17 -22 22 -22 347 0 182 0 334 0 340 1 5 158 -147 350 -339 193 -193 348 -353 345 -358z"/>
    <path d="M3397 5216 c-123 -44 -152 -181 -74 -340 59 -119 137 -159 230 -118 110 49 188 264 134 368 -46 89 -178 130 -290 90z"/>
    <path d="M3217 4627 c-38 -12 -79 -32 -91 -44 -25 -24 -46 -90 -46 -143 l0 -30 408 2 407 3 3 28 c5 43 -26 135 -51 151 -12 8 -56 25 -99 37 l-76 22 -32 -26 c-17 -15 -57 -34 -87 -43 -70 -20 -141 -8 -202 37 -48 34 -46 34 -134 6z"/>
    <path d="M3074 4037 c-3 -8 -4 -45 -2 -83 l3 -69 888 -3 887 -2 0 85 0 85 -885 0 c-734 0 -887 -2 -891 -13z"/>
    <path d="M3077 3493 c-4 -3 -7 -42 -7 -85 l0 -78 90 0 90 0 0 85 0 85 -83 0 c-46 0 -87 -3 -90 -7z"/>
    <path d="M3577 3493 c-4 -3 -7 -42 -7 -85 l0 -78 640 0 640 0 0 85 0 85 -633 0 c-349 0 -637 -3 -640 -7z"/>
    <path d="M3070 2870 l0 -80 90 0 90 0 0 80 0 80 -90 0 -90 0 0 -80z"/>
    <path d="M3570 2870 l0 -80 640 0 640 0 0 80 0 80 -640 0 -640 0 0 -80z"/>
  </g>
</svg>