<svg width="192" height="192" viewBox="0 0 192 192" fill="none" xmlns="http://www.w3.org/2000/svg">
<g clip-path="url(#clip0_1369_1184)">
<path d="M182.749 118.251H189.363C191.045 111.102 192.001 103.647 192.001 96.0002C192.001 88.3538 191.084 80.8986 189.363 73.7493H182.749C167.992 73.7493 153.425 69.8496 140.656 62.4709L51.4612 10.9727C24.6225 25.042 5.31545 51.4219 0.957031 82.619H112.441V69.3908C112.441 65.797 116.341 63.5414 119.437 65.3383L165.507 91.9476C168.603 93.7445 168.603 98.2558 165.507 100.053L119.437 126.662C116.341 128.459 112.441 126.203 112.441 122.609V109.381H0.957031C5.31545 140.578 24.6225 166.958 51.4612 181.028L140.656 129.529C153.425 122.151 167.992 118.251 182.749 118.251Z" fill="url(#paint0_radial_1369_1184)"/>
<path d="M74.8214 189.63C81.6267 191.159 88.7378 192 96.0018 192C134.195 192 167.189 169.673 182.635 137.367C171.28 137.367 160.04 140.387 150.176 146.084L74.7832 189.591L74.8214 189.63Z" fill="url(#paint1_radial_1369_1184)"/>
<path d="M182.634 54.6332C167.188 22.3274 134.194 0 96.0007 0C88.6985 0 81.6256 0.841099 74.8203 2.37037L150.213 45.8781C160.077 51.5747 171.279 54.595 182.672 54.595L182.634 54.6332Z" fill="url(#paint2_radial_1369_1184)"/>
<path d="M182.747 73.7488H189.361C187.793 67.0965 185.538 60.6736 182.632 54.633C171.239 54.633 160.037 51.6126 150.173 45.9161L74.8186 2.37012C66.5988 4.24347 58.7613 7.14909 51.459 10.9723L140.654 62.4705C153.423 69.8492 167.989 73.7488 182.747 73.7488Z" fill="#214B30"/>
<path d="M182.747 118.251C167.989 118.251 153.423 122.15 140.654 129.529L51.459 181.027C58.7613 184.85 66.5605 187.756 74.8186 189.629L150.212 146.122C160.075 140.425 171.277 137.405 182.67 137.405C185.576 131.364 187.832 124.941 189.399 118.289H182.785L182.747 118.251Z" fill="#214B30"/>
<path d="M126.593 82.2856H1.07611C0.387399 86.7526 0 91.3371 0 95.9999C0 100.663 0.387399 105.247 1.07611 109.714H126.593V82.2856Z" fill="#214B30"/>
<path d="M122.61 87.2836V104.717C122.61 107.279 119.437 109.382 115.499 109.382H112.479V122.61C112.479 126.204 116.378 128.459 119.475 126.662L165.544 100.053C168.641 98.2561 168.641 93.7447 165.544 91.9479L119.475 65.3385C116.378 63.5416 112.479 65.7973 112.479 69.3911V82.6193H115.499C119.437 82.6193 122.61 84.7221 122.61 87.2836Z" fill="#214B30"/>
<path d="M115.46 109.381C119.398 109.381 122.571 107.278 122.571 104.717V87.2832C122.571 84.7216 119.398 82.6189 115.46 82.6189H112.439V109.381H115.46Z" fill="#214B30"/>
</g>
<defs>
<radialGradient id="paint0_radial_1369_1184" cx="0" cy="0" r="1" gradientUnits="userSpaceOnUse" gradientTransform="translate(96.4791 96.0001) rotate(90) scale(85.0275 95.5221)">
<stop stop-color="#00FF5B"/>
<stop offset="1" stop-color="#1ED760"/>
</radialGradient>
<radialGradient id="paint1_radial_1369_1184" cx="0" cy="0" r="1" gradientUnits="userSpaceOnUse" gradientTransform="translate(128.709 164.683) rotate(90) scale(27.3166 53.9259)">
<stop stop-color="#00FF5B"/>
<stop offset="1" stop-color="#1ED760"/>
</radialGradient>
<radialGradient id="paint2_radial_1369_1184" cx="0" cy="0" r="1" gradientUnits="userSpaceOnUse" gradientTransform="translate(128.746 27.3166) rotate(90) scale(27.3166 53.9259)">
<stop stop-color="#00FF5B"/>
<stop offset="1" stop-color="#1ED760"/>
</radialGradient>
<clipPath id="clip0_1369_1184">
<rect width="192" height="192" fill="white"/>
</clipPath>
</defs>
</svg>
