<?xml version="1.0" encoding="UTF-8" standalone="no"?>
<!-- Created with Inkscape (http://www.inkscape.org/) -->
<svg
   xmlns:svg="http://www.w3.org/2000/svg"
   xmlns="http://www.w3.org/2000/svg"
   xmlns:xlink="http://www.w3.org/1999/xlink"
   version="1.0"
   width="102"
   height="118"
   id="svg2">
  <defs
     id="defs4" />
  <path
     d="M 79.8932,85.84562 C 79.222,83.783269 78.94731,82.135161 79.31947,80.422812 C 77.71566,82.4032 75.94793,84.268398 75.94793,84.268398 C 75.94793,84.268398 73.85014,86.452585 72.23526,87.930123 C 72.6207,90.038992 73.1014,91.56748 74.00742,93.332994 C 74.62767,94.544708 75.34983,95.619079 75.91692,96.387754 C 76.2204,96.799781 76.54382,97.220669 76.71661,97.431113 C 79.5875,95.326673 81.87137,93.062739 83.37771,91.334884 C 82.08846,89.782029 80.41377,87.449424 79.8932,85.84562 z M 93.81573,96.2925 C 91.83313,98.864347 89.35653,101.45613 86.59418,103.84855 C 87.44039,104.19855 88.4195,104.51532 89.74419,104.86975 C 91.173,105.25077 92.13439,105.40583 93.37712,105.49887 L 94.59326,99.322893 L 95.11605,100.4017 C 95.66764,101.54031 96.41859,102.11847 97.66132,102.35993 C 98.97493,102.61468 100.41481,102.43303 100.89994,101.35645 C 101.38728,100.27986 101.14804,99.07036 99.72367,97.891874 C 98.85088,97.169719 97.73663,96.830794 96.60024,96.638071 C 95.58346,96.467501 94.59548,96.412121 93.81573,96.2925 z M 14.44735,103.03557 C 13.39292,102.08303 12.385,101.10391 11.4369,100.1115 C 10.23183,98.84884 9.14638,97.559594 8.16062,96.279209 C 7.36758,96.40769 6.34194,96.460855 5.2875,96.638071 C 4.15111,96.830794 3.03686,97.169719 2.16407,97.891874 C 0.74191,99.07036 0.50046,100.27986 0.98559,101.35645 C 1.47293,102.43303 2.91281,102.61468 4.22642,102.35993 C 5.46915,102.11847 6.2201,101.54031 6.77169,100.4017 L 7.29447,99.322893 L 8.51062,105.49887 C 9.75335,105.40583 10.71474,105.25077 12.14355,104.86975 C 13.48596,104.51089 14.47393,104.18969 15.32679,103.83525 L 14.44735,103.03557 z M 18.448,91.049123 C 19.98535,92.84122 21.81289,94.62667 23.89739,96.308006 C 24.31385,96.640286 24.74803,96.974781 25.23537,97.338074 C 25.40816,97.125415 25.66734,96.799781 25.97082,96.387754 C 26.53791,95.619079 27.26007,94.544708 27.88032,93.332994 C 28.78412,91.56748 29.26704,90.165259 29.65248,88.056389 C 28.03982,86.576636 25.82019,84.263968 25.82019,84.263968 C 25.82019,84.263968 24.16986,82.4032 22.56827,80.422812 C 22.94043,82.135161 22.66574,83.783269 21.99454,85.84562 C 21.48061,87.429488 19.90117,89.686776 18.448,91.049123 z M 89.76191,77.365837 C 93.31952,85.763658 74.72293,106.79698 50.98264,106.8302 C 27.39962,106.79698 8.72549,85.686126 12.20114,77.372483 C 9.81537,78.920907 6.57232,81.06522 5.58434,81.920287 C 0.39191,86.412711 9.51632,99.932073 22.62587,108.2723 C 32.12907,114.32201 41.47057,116.34891 50.98264,116.24259 C 60.4947,116.34891 69.83398,114.32201 79.3394,108.2723 C 92.44674,99.932073 101.57114,86.412711 96.38093,81.920287 C 95.38188,81.056359 92.12996,78.903185 89.76191,77.365837 z M 8.916,111.70143 L 6.93561,101.66214 C 6.31757,102.45961 5.3606,102.94253 4.37927,103.14633 C 3.53528,103.32354 2.72452,103.3612 1.87388,103.05772 C 2.54287,104.31152 3.04794,105.14222 3.84319,106.70837 C 4.68497,108.36534 5.2432,109.90268 5.8413,111.05016 C 6.43276,112.18656 6.98656,112.77358 7.77296,112.85776 C 8.32454,112.91757 9.02454,112.25301 8.916,111.70143 z M 92.97174,111.70143 C 92.86319,112.25301 93.5632,112.91757 94.11257,112.85776 C 94.90118,112.77358 95.45498,112.18656 96.04644,111.05016 C 96.64454,109.90268 97.20055,108.36534 98.04455,106.70837 C 98.8398,105.14222 99.34487,104.31152 100.01386,103.05772 C 99.16322,103.3612 98.35246,103.32354 97.50847,103.14633 C 96.52713,102.94253 95.57017,102.45961 94.94991,101.66214 L 92.97174,111.70143"
     id="path3006"
     style="fill:#faa61a;fill-opacity:1;fill-rule:evenodd;stroke:none" />
  <path
     d="M 20.84485,98.326673 L 17.63281,102.59093 L 18.51889,103.25549 L 19.84801,101.42795 L 19.90339,101.42795 L 19.95877,104.36309 L 21.01099,105.13841 L 20.90023,101.59409 L 24.11227,100.87415 L 23.11543,100.09883 L 20.40181,100.76339 L 20.34643,100.76339 L 21.67555,98.991233 L 20.84485,98.326673 z M 79.54763,99.545033 L 78.93845,100.04345 L 80.54447,105.52607 L 81.43055,104.86151 L 80.98751,103.53239 L 82.42739,102.42479 L 83.64575,103.14473 L 84.58721,102.42479 L 79.54763,99.545033 z M 80.15681,100.98491 C 80.28752,101.09788 80.47801,101.21751 80.71061,101.37257 L 81.59669,101.92637 L 80.71061,102.64631 L 80.37833,101.59409 C 80.30075,101.34821 80.24099,101.14441 80.15681,100.98491 z M 77.05553,101.53871 L 73.40045,103.86467 L 73.84349,104.58461 L 75.17261,103.80929 L 77.49857,107.51975 L 78.44003,106.91057 L 76.11407,103.20011 L 77.33243,102.42479 L 77.05553,101.53871 z M 25.21987,102.09251 C 25.04618,102.10155 24.8887,102.16008 24.72145,102.20327 C 24.0436,102.37828 23.461,102.80802 23.06005,103.47701 C 22.63696,104.18144 22.51068,104.93461 22.72777,105.63683 C 22.91163,106.23715 23.3303,106.7843 24.00151,107.18747 C 24.71035,107.615 25.43253,107.68811 26.10595,107.51975 C 26.76827,107.35361 27.37304,106.90171 27.76735,106.24601 C 28.14836,105.61025 28.2857,104.95012 28.15501,104.30771 C 28.01322,103.621 27.57241,102.98302 26.82589,102.53555 C 26.30422,102.22155 25.74092,102.06541 25.21987,102.09251 z M 25.71829,103.08935 C 25.92416,103.11877 26.13086,103.19291 26.32747,103.31087 C 27.11606,103.78493 27.35975,104.71088 26.77051,105.69221 C 26.17464,106.68684 25.21987,106.87734 24.44455,106.41215 C 23.65813,105.9381 23.45878,105.02322 24.05689,104.03081 C 24.50381,103.28484 25.10065,103.00109 25.71829,103.08935 z M 71.07449,104.86151 L 70.29917,105.24917 L 70.68683,110.95331 L 71.68367,110.45489 L 71.57291,109.07039 L 73.23431,108.35045 L 74.23115,109.29191 L 75.28337,108.79349 L 71.07449,104.86151 z M 32.53002,105.52607 L 32.25312,106.41215 L 33.693,106.91057 L 32.19774,111.06407 L 33.24996,111.45173 L 34.74522,107.29823 L 36.07434,107.79665 L 36.62814,107.02133 L 32.53002,105.52607 z M 71.29601,106.41215 C 71.39797,106.54629 71.55808,106.71919 71.73905,106.91057 L 72.51437,107.68589 L 71.46215,108.18431 L 71.40677,107.02133 C 71.38678,106.76658 71.34253,106.58715 71.29601,106.41215 z M 66.42257,106.85519 C 66.1609,106.88454 65.86766,106.91943 65.53649,107.02133 C 63.80426,107.55076 63.03553,109.0859 63.48744,110.56565 C 63.92385,111.99002 65.19978,112.82958 66.81023,112.33781 C 67.64978,112.08085 68.30328,111.67768 68.74853,111.23021 L 68.08397,109.01501 L 67.03175,109.34729 L 67.53017,111.06407 C 67.36845,111.1992 67.10264,111.30553 66.81023,111.39635 C 65.75362,111.71977 64.89409,111.10173 64.59504,110.12261 C 64.32035,109.22988 64.57731,108.26184 65.92415,107.85203 C 66.4337,107.69475 66.9365,107.70804 67.41941,107.79665 L 67.14251,106.85519 C 66.91656,106.84855 66.68425,106.82584 66.42257,106.85519 z M 38.1234,107.40899 L 36.7389,112.55933 L 39.72942,113.33465 L 39.95094,112.50395 L 38.06802,111.95015 L 38.4003,110.67641 L 40.0617,111.11945 L 40.28322,110.23337 L 38.62182,109.79033 L 38.9541,108.57197 L 40.56012,109.01501 L 41.11392,108.23969 L 38.1234,107.40899 z M 61.1061,108.35045 L 59.9985,108.51659 L 60.44154,111.17483 C 60.47694,111.39635 60.49692,111.76186 60.5523,112.00553 C 60.37513,111.81281 60.19122,111.62673 59.94312,111.39635 L 57.34026,108.95963 L 56.23266,109.12577 L 57.06336,114.38687 L 58.11558,114.22073 L 57.67254,111.34097 C 57.63488,111.10394 57.60387,110.73844 57.56178,110.56565 C 57.75671,110.77166 57.93172,111.00647 58.17096,111.23021 L 60.88458,113.77769 L 61.9368,113.61155 L 61.1061,108.35045 z M 44.82438,108.90425 L 44.71362,109.79033 L 46.26426,109.95647 L 45.82122,114.33149 L 46.92882,114.44225 L 47.37186,110.06723 L 48.81174,110.23337 L 49.14402,109.34729 L 44.82438,108.90425 z M 51.9684,109.23653 L 49.97472,114.60839 L 51.08232,114.60839 L 51.52536,113.27927 L 53.3529,113.27927 L 53.9067,114.55301 L 55.06968,114.55301 L 52.7991,109.23653 L 51.9684,109.23653 z M 52.41144,110.73179 C 52.44688,110.89793 52.53992,111.07736 52.63296,111.34097 L 53.02062,112.39319 L 51.85764,112.39319 L 52.2453,111.34097 C 52.32949,111.0973 52.38264,110.90901 52.41144,110.73179 z"
     id="path3008"
     style="fill:#231f20;fill-opacity:1;fill-rule:evenodd;stroke:none" />
  <path
     d="M 80.57991,77.671534 C 81.59891,75.95254 82.91252,74.616775 85.12993,74.539243 C 86.40146,74.492723 87.28532,74.689876 88.33754,75.465196 C 88.51033,75.591462 95.72966,80.296546 96.90593,81.313322 C 100.25531,84.213018 98.61385,89.784244 94.36731,95.559269 C 95.06732,95.643447 95.89137,95.705472 96.73315,95.847245 C 97.92271,96.048828 99.20088,96.418766 100.23538,97.273833 C 101.88792,98.640611 102.26672,100.04062 101.52462,101.90139 C 100.54551,103.92608 99.8167,104.98937 98.76005,107.07166 C 97.91606,108.73306 97.35783,110.27041 96.75751,111.42231 C 96.15055,112.58529 95.42396,113.52454 94.20117,113.65523 C 93.22206,113.76156 91.95053,112.73371 92.18534,111.54636 L 93.21984,106.29191 C 91.97268,106.19444 90.98692,106.03273 89.53596,105.64507 C 88.00305,105.23305 86.89323,104.86532 85.91411,104.42893 C 83.97138,106.06374 81.90017,107.59445 79.76915,108.95015 C 70.11753,115.0929 60.62761,117.15303 50.98264,117.04449 C 41.33544,117.15303 31.84774,115.0929 22.1939,108.95015 C 20.05402,107.5878 17.97395,106.05045 16.02236,104.40899 C 15.03217,104.85425 13.91127,105.2264 12.35177,105.64507 C 10.90082,106.03273 9.91505,106.19444 8.6679,106.29191 L 9.7024,111.54636 C 9.93721,112.73371 8.66568,113.76156 7.68878,113.65523 C 6.46156,113.52454 5.73719,112.58529 5.13022,111.42231 C 4.52991,110.27041 3.97167,108.73306 3.12768,107.07166 C 2.06882,104.98937 1.34223,103.92608 0.36312,101.90139 C -0.37898,100.04062 -0.00018,98.640611 1.65236,97.273833 C 2.68464,96.418766 3.96503,96.048828 5.15459,95.847245 C 6.02516,95.701042 6.8758,95.641231 7.5891,95.550408 C 3.3492,89.779814 1.70996,84.210803 5.05934,81.313322 C 6.43719,80.121545 11.99734,76.537352 13.9002,75.316778 C 14.86603,74.663294 15.71223,74.497154 16.90179,74.539243 C 19.0882,74.614559 20.39516,75.919312 21.40751,77.607294 C 23.20847,80.110469 26.40943,83.721244 26.40943,83.721244 C 26.40943,83.721244 28.74868,86.160178 30.3547,87.611134 L 30.48097,87.976642 C 30.0778,90.282664 29.5683,91.797861 28.59583,93.698502 C 27.95121,94.95452 27.20469,96.06655 26.61766,96.864022 C 26.32968,97.251681 26.0993,97.601683 25.93538,97.856431 C 32.43034,102.50392 41.01424,106.01279 50.98264,106.0283 C 60.96654,106.01279 69.57259,102.52386 76.08084,97.894089 C 75.86154,97.632696 75.56913,97.267188 75.27008,96.864022 C 74.68305,96.06655 73.93653,94.95452 73.29412,93.698502 C 72.31944,91.797861 71.80994,90.282664 71.40677,87.976642 L 71.53304,87.611134 C 73.13906,86.160178 75.47831,83.721244 75.47831,83.721244 C 75.47831,83.721244 78.67927,80.110469 80.48023,77.607294 L 80.57991,77.671534 z M 89.82837,77.410141 C 89.93027,77.687041 90.00116,77.975017 90.04989,78.271853 C 92.03914,87.17917 73.90995,106.79919 50.98264,106.8302 C 27.39962,106.79698 8.72549,85.686126 12.20114,77.372483 C 9.81537,78.920907 6.57232,81.06522 5.58434,81.920287 C 0.39191,86.412711 9.51632,99.932073 22.62587,108.2723 C 32.12907,114.32201 41.47057,116.34891 50.98264,116.24259 C 60.4947,116.34891 69.83398,114.32201 79.3394,108.2723 C 92.44674,99.932073 101.57114,86.412711 96.38093,81.920287 C 95.39074,81.06522 92.18977,78.945274 89.82837,77.410141 z M 87.02614,86.28866 C 86.45019,85.484543 85.32487,85.099098 84.25271,85.052579 C 83.03435,85.003844 81.67865,85.371567 81.09827,86.244356 C 81.6565,87.786135 82.91252,89.476332 84.06221,90.530767 C 85.24291,89.099748 86.23532,87.668729 87.02614,86.28866 z M 20.95782,86.282014 C 20.35307,85.371567 18.99516,85.003844 17.77901,85.052579 C 16.70464,85.099098 15.57932,85.484543 15.02773,86.255432 C 15.8097,87.611134 16.77774,89.024431 17.93186,90.433298 C 19.08598,89.341205 20.32649,87.639931 20.95782,86.282014 z M 79.8932,85.84562 C 79.222,83.783269 78.94731,82.135161 79.31947,80.422812 C 77.71566,82.4032 75.94793,84.268398 75.94793,84.268398 C 75.94793,84.268398 73.85014,86.452585 72.23526,87.930123 C 72.6207,90.038992 73.1014,91.56748 74.00742,93.332994 C 74.62767,94.544708 75.34983,95.619079 75.91692,96.387754 C 76.2204,96.799781 76.54382,97.220669 76.71661,97.431113 C 79.5875,95.326673 81.87137,93.062739 83.37771,91.334884 C 82.08846,89.782029 80.41377,87.449424 79.8932,85.84562 z M 93.81573,96.2925 C 91.83313,98.864347 89.35653,101.45613 86.59418,103.84855 C 87.44039,104.19855 88.4195,104.51532 89.74419,104.86975 C 91.173,105.25077 92.13439,105.40583 93.37712,105.49887 L 94.59326,99.322893 L 95.11605,100.4017 C 95.66764,101.54031 96.41859,102.11847 97.66132,102.35993 C 98.97493,102.61468 100.41481,102.43303 100.89994,101.35645 C 101.38728,100.27986 101.14804,99.07036 99.72367,97.891874 C 98.85088,97.169719 97.73663,96.830794 96.60024,96.638071 C 95.58346,96.467501 94.59548,96.412121 93.81573,96.2925 z M 14.44735,103.03557 C 13.39292,102.08303 12.385,101.10391 11.4369,100.1115 C 10.23183,98.84884 9.14638,97.559594 8.16062,96.279209 C 7.36758,96.40769 6.34194,96.460855 5.2875,96.638071 C 4.15111,96.830794 3.03686,97.169719 2.16407,97.891874 C 0.74191,99.07036 0.50046,100.27986 0.98559,101.35645 C 1.47293,102.43303 2.91281,102.61468 4.22642,102.35993 C 5.46915,102.11847 6.2201,101.54031 6.77169,100.4017 L 7.29447,99.322893 L 8.51062,105.49887 C 9.75335,105.40583 10.71474,105.25077 12.14355,104.86975 C 13.48596,104.51089 14.47393,104.18969 15.32679,103.83525 L 14.44735,103.03557 z M 18.448,91.049123 C 19.98535,92.84122 21.81289,94.62667 23.89739,96.308006 C 24.31385,96.640286 24.74803,96.974781 25.23537,97.338074 C 25.40816,97.125415 25.66734,96.799781 25.97082,96.387754 C 26.53791,95.619079 27.26007,94.544708 27.88032,93.332994 C 28.78412,91.56748 29.26704,90.165259 29.65248,88.056389 C 28.03982,86.576636 25.82019,84.263968 25.82019,84.263968 C 25.82019,84.263968 24.16986,82.4032 22.56827,80.422812 C 22.94043,82.135161 22.66574,83.783269 21.99454,85.84562 C 21.48061,87.429488 19.90117,89.686776 18.448,91.049123 z M 8.916,111.70143 L 6.93561,101.66214 C 6.31757,102.45961 5.3606,102.94253 4.37927,103.14633 C 3.53528,103.32354 2.72452,103.3612 1.87388,103.05772 C 2.54287,104.31152 3.04794,105.14222 3.84319,106.70837 C 4.68497,108.36534 5.2432,109.90268 5.8413,111.05016 C 6.43276,112.18656 6.98656,112.77358 7.77296,112.85776 C 8.32454,112.91757 9.02454,112.25301 8.916,111.70143 z M 92.97174,111.70143 C 92.86319,112.25301 93.5632,112.91757 94.11257,112.85776 C 94.90118,112.77358 95.45498,112.18656 96.04644,111.05016 C 96.64454,109.90268 97.20055,108.36534 98.04455,106.70837 C 98.8398,105.14222 99.34487,104.31152 100.01386,103.05772 C 99.16322,103.3612 98.35246,103.32354 97.50847,103.14633 C 96.52713,102.94253 95.57017,102.45961 94.94991,101.66214 L 92.97174,111.70143"
     id="path3038"
     style="fill:#231f20;fill-opacity:1;fill-rule:nonzero;stroke:none" />
  <path
     d="M 92.79674,0.8041174 L 92.79674,45.110319 C 92.79674,45.110319 92.97838,49.071096 91.3923,55.286945 C 89.80179,61.529377 86.43247,70.057894 79.30839,79.17344 C 73.82577,86.191191 66.7039,91.879823 60.93774,95.818447 C 55.85386,99.294095 51.84213,101.39632 50.9782,101.83936 C 50.07883,101.40518 45.82565,99.28745 40.46708,95.625725 C 34.41294,91.487733 26.96544,85.387074 21.35434,77.531977 C 15.59926,69.473082 12.57994,61.028742 11.00272,54.591373 C 9.42771,48.171725 9.29037,43.770124 9.29037,43.770124 L 9.29037,0.8041174 L 92.79674,0.8041174"
     id="path3040"
     style="fill:#faa61a;fill-opacity:1;fill-rule:evenodd;stroke:none" />
  <path
     d="M 19.02395,10.652894 L 83.07201,10.652894 L 83.07201,44.716014 C 83.07201,44.716014 83.07201,56.751192 73.48463,70.824353 C 65.23523,82.937063 50.98264,90.583931 50.98264,90.583931 C 50.98264,90.583931 35.20156,81.144967 27.38633,68.784155 C 18.61636,54.914792 19.02395,42.675815 19.02395,42.675815 L 19.02395,10.652894"
     id="path3042"
     style="fill:#231f20;fill-opacity:1;fill-rule:evenodd;stroke:none" />
  <path
     d="M 93.59864,0 L 93.59864,45.092598 C 93.60086,45.152408 94.33852,61.236971 79.94194,79.667429 C 68.846,93.869072 50.98264,102.73208 50.9782,102.7343 C 50.97156,102.74094 46.12249,100.46372 40.01518,96.28807 C 33.91674,92.12128 26.38728,85.958595 20.70086,77.999384 C 9.04448,61.677795 8.48847,43.807782 8.48847,43.783415 L 8.48847,0 L 93.59864,0 z M 92.79674,0.8041174 L 9.29037,0.8041174 L 9.29037,43.770124 C 9.29037,43.770124 9.42771,48.171725 11.00272,54.591373 C 12.57994,61.028742 15.59926,69.473082 21.35434,77.531977 C 26.96544,85.387074 34.41294,91.487733 40.46708,95.625725 C 45.82565,99.28745 50.07883,101.40518 50.9782,101.83936 C 51.84213,101.39632 55.85386,99.294095 60.93774,95.818447 C 66.7039,91.879823 73.82577,86.191191 79.30839,79.17344 C 86.43247,70.057894 89.80179,61.529377 91.3923,55.286945 C 92.97838,49.071096 92.79674,45.110319 92.79674,45.110319 L 92.79674,0.8041174"
     id="path3044"
     style="fill:#231f20;fill-opacity:1;fill-rule:evenodd;stroke:none" />
  <path
     d="M 54.7529,2.5652008 C 50.66586,5.2721744 45.92977,7.7775649 40.93671,8.6835814 C 33.15914,10.094663 36.14523,5.1259713 40.01075,4.8955905 C 42.72216,4.7316658 42.14399,6.6478132 40.57784,7.1019291 C 43.81647,6.2823053 45.64179,5.6775559 48.35984,4.2243851 L 39.07151,4.2243851 C 36.65473,4.2509675 33.85471,4.5411586 31.5797,5.234516 C 33.42053,4.9709073 35.1639,6.7209148 32.33066,7.8085777 C 28.29678,9.357002 22.37112,5.6310367 31.03255,3.4712174 C 33.47148,2.8620375 36.49523,2.6072896 38.98955,2.578492 L 54.7529,2.5652008 z M 47.21458,8.7744046 C 51.30162,6.067431 56.03772,3.5620405 61.03078,2.656024 C 68.80834,1.244942 65.82226,6.2136341 61.95673,6.4462301 C 59.24311,6.6079396 59.8235,4.6917922 61.38964,4.2376763 C 58.15102,5.0573001 56.3257,5.6642647 53.60765,7.1152203 L 62.89598,7.1152203 C 65.31276,7.0886379 68.11277,6.7984468 70.38778,6.1050894 C 68.54695,6.3709133 66.80359,4.6186906 69.63683,3.5310277 C 73.66849,1.9826034 79.59637,5.7085687 70.93494,7.8683881 C 68.496,8.4775679 65.47225,8.7323158 62.97572,8.7611134 L 47.21458,8.7744046 z"
     id="path3046"
     style="fill:#ee3124;fill-opacity:1;fill-rule:evenodd;stroke:none" />
  <path
     d="M 17.94737,79.851291 C 17.86319,80.338634 17.44009,80.710788 16.92838,80.710788 C 16.35685,80.710788 15.89388,80.247811 15.89388,79.67629 C 15.89388,79.423757 15.97806,79.193376 16.1309,79.01173 C 16.28818,78.85002 16.49198,78.7304 16.71793,78.663944 C 17.43344,78.455715 18.39484,78.743691 18.94199,79.640847 C 19.68187,80.852561 18.92206,82.589277 17.53756,83.132001 C 16.03787,83.721244 13.08279,82.959215 12.75716,79.89781 C 12.54007,77.855396 13.2733,76.599378 14.61792,75.830704 C 16.33913,74.884814 19.94548,75.318993 20.66099,78.548753 L 20.52586,78.612994 C 18.87332,76.504124 16.89515,76.479757 15.69894,77.111089 C 14.00874,78.00603 14.07963,80.092747 14.80178,81.085157 C 15.51729,82.064275 16.63375,82.270288 17.4999,81.681045 C 17.96066,81.368702 18.2575,80.544648 17.94737,79.851291 z"
     id="path7088"
     style="fill:#faa61a;fill-opacity:1;fill-rule:evenodd;stroke:none" />
  <path
     d="M 54.82046,24.389345 L 50.96823,21.591548 L 47.116,24.389345 L 48.58689,19.861477 L 44.73687,17.063681 L 49.49734,17.063681 L 50.96823,12.535813 L 52.43914,17.063681 L 57.19958,17.063681 L 53.34737,19.861477 L 54.82046,24.389345 z"
     id="path7076"
     style="fill:#faa61a;fill-opacity:1;fill-rule:evenodd;stroke:none" />
  <path
     d="M 34.27782,33.493814 L 35.48289,33.493814 L 35.48289,60.982223 L 49.07756,60.982223 C 49.34782,60.962286 49.46522,60.933488 49.607,60.878108 C 49.88833,60.769563 50.2494,60.550259 50.65479,60.12494 C 50.81871,59.952155 50.94276,59.779369 51.04909,59.624305 C 51.15542,59.779369 51.27283,59.952155 51.43897,60.12494 C 51.84435,60.550259 52.20543,60.769563 52.48676,60.878108 C 52.62853,60.933488 52.74593,60.962286 53.01619,60.982223 L 66.60865,60.982223 L 66.60865,33.493814 L 67.81593,33.493814 L 67.81593,61.835074 L 53.81366,61.835074 C 53.90005,62.920522 52.77252,62.845205 51.06681,62.845205 C 49.31681,62.845205 48.19148,62.920522 48.28009,61.835074 L 34.27782,61.835074 L 34.27782,33.493814"
     id="path3052"
     style="fill:#ee3124;fill-opacity:1;fill-rule:nonzero;stroke:none" />
  <path
     d="M 40.34525,28.850756 C 41.51266,28.804237 42.94146,28.609299 44.27501,28.024487 C 44.82217,27.787461 45.26078,27.421953 45.86109,27.138407 C 46.53008,26.826064 47.36521,26.613405 48.62788,26.710874 C 49.63801,26.788406 50.33358,27.198217 50.77441,27.599169 C 50.87852,27.694422 50.96934,27.787461 51.04688,27.876068 C 51.12441,27.787461 51.21302,27.694422 51.31713,27.599169 C 51.76017,27.198217 52.45574,26.788406 53.46587,26.710874 C 54.72854,26.613405 55.56367,26.826064 56.23266,27.138407 C 56.83076,27.421953 57.26937,27.787461 57.81874,28.024487 C 59.15229,28.609299 60.57888,28.804237 61.7485,28.850756 C 62.81845,28.886199 63.84851,28.757718 63.97921,28.742211 C 64.04124,28.990314 64.14092,29.615 65.00485,30.184306 C 65.5232,30.523232 66.60865,31.167855 66.60865,31.167855 L 66.60865,60.982223 L 53.01619,60.982223 C 52.74593,60.962286 52.62853,60.933488 52.48676,60.878108 C 52.20543,60.769563 51.84435,60.550259 51.43897,60.12494 C 51.27947,59.958801 51.15099,59.799306 51.04688,59.650888 C 50.94276,59.799306 50.81428,59.958801 50.65479,60.12494 C 50.2494,60.550259 49.88833,60.769563 49.607,60.878108 C 49.46522,60.933488 49.34782,60.962286 49.25699,60.973362 L 35.48289,60.982223 L 35.48289,31.167855 C 35.48289,31.167855 36.57055,30.523232 37.08669,30.184306 C 37.95283,29.615 38.05252,28.990314 38.11454,28.742211 C 38.24524,28.757718 39.27531,28.886199 40.34525,28.850756 z M 51.45004,56.184101 L 51.45004,58.476832 C 51.44118,58.605314 51.45004,58.665124 51.47662,58.749302 C 51.52979,58.917657 51.66492,59.203418 52.01935,59.571141 C 52.39372,59.958801 52.71271,60.105004 52.89435,60.17589 L 65.51213,60.18032 L 63.37889,57.083472 C 62.93364,57.118915 62.3023,57.154358 61.66654,57.129991 C 60.50578,57.083472 58.96843,56.879673 57.51083,56.241696 C 56.95481,55.998024 56.51177,55.630301 55.90481,55.34454 C 55.36651,55.094223 54.67094,54.903716 53.54119,54.990108 C 52.73043,55.052134 52.19878,55.375553 51.87093,55.67239 C 51.71365,55.814163 51.60289,55.951505 51.45004,56.184101 z M 37.49872,30.884309 C 36.92941,31.203298 36.51738,31.460261 36.287,31.606464 L 36.287,59.167974 L 38.09239,56.549609 L 38.09239,30.412472 C 37.87752,30.622916 37.69144,30.78241 37.49872,30.884309 z M 36.58162,60.18032 L 49.14845,60.178105 C 49.47408,60.06956 49.73991,59.923357 50.0744,59.571141 C 50.42884,59.201202 50.56175,58.917657 50.61491,58.749302 L 50.64371,58.476832 L 50.64371,56.184101 C 50.49086,55.951505 50.37789,55.814163 50.22282,55.67239 C 49.89276,55.375553 49.36111,55.052134 48.55256,54.990108 C 47.42281,54.903716 46.72724,55.094223 46.18894,55.34454 C 45.58198,55.630301 45.13672,55.998024 44.58292,56.241696 C 43.12311,56.879673 41.58797,57.083472 40.42721,57.129991 C 39.79145,57.154358 39.1579,57.118915 38.71265,57.083472 L 36.58162,60.18032 z M 50.63928,54.985678 L 50.63928,28.689047 C 50.63928,28.689047 50.07883,27.614675 48.50161,27.50613 C 46.20002,27.344421 45.49559,28.343476 44.43672,28.806452 C 41.93798,29.894115 38.89208,29.61943 38.89208,29.61943 L 38.89208,56.312582 C 38.89208,56.312582 42.04652,56.593913 44.43672,55.415427 C 45.47122,54.903716 46.26205,54.039788 48.43294,54.192637 C 50.01238,54.303397 50.63928,54.985678 50.63928,54.985678 z M 51.45447,54.985678 C 51.45447,54.985678 52.08137,54.303397 53.66081,54.192637 C 55.83171,54.039788 56.62253,54.903716 57.65703,55.415427 C 60.04723,56.593913 63.20167,56.312582 63.20167,56.312582 L 63.20167,29.61943 C 63.20167,29.61943 60.15578,29.894115 57.65703,28.806452 C 56.59817,28.343476 55.89373,27.344421 53.59214,27.50613 C 52.01492,27.614675 51.45447,28.689047 51.45447,28.689047 L 51.45447,54.985678 z M 64.59282,30.884309 C 64.40231,30.78241 64.21402,30.622916 64.00136,30.412472 L 64.00136,56.549609 L 65.80675,59.167974 L 65.80675,31.606464 C 65.57415,31.460261 65.16434,31.203298 64.80326,30.997284 L 64.59282,30.884309"
     id="path3054"
     style="fill:#231f20;fill-opacity:1;fill-rule:nonzero;stroke:none" />
  <path
     d="M 37.49872,30.884309 C 36.92941,31.203298 36.51738,31.460261 36.287,31.606464 L 36.287,59.167974 L 38.09239,56.549609 L 38.09239,30.412472 C 37.87752,30.622916 37.69144,30.78241 37.49872,30.884309 z M 64.59282,30.884309 C 65.16434,31.203298 65.57415,31.460261 65.80675,31.606464 L 65.80675,59.167974 L 64.00136,56.549609 L 64.00136,30.412472 C 64.21402,30.622916 64.40231,30.78241 64.59282,30.884309 z M 65.51213,60.18032 L 52.9453,60.178105 C 52.61967,60.06956 52.35384,59.923357 52.01935,59.571141 C 51.66492,59.201202 51.52979,58.917657 51.47662,58.749302 L 51.45004,56.184101 C 51.60289,55.951505 51.71365,55.814163 51.87093,55.67239 C 52.19878,55.375553 52.73043,55.052134 53.54119,54.990108 C 54.67094,54.903716 55.36651,55.094223 55.90481,55.34454 C 56.51177,55.630301 56.95481,55.998024 57.51083,56.241696 C 58.96843,56.879673 60.50578,57.083472 61.66654,57.129991 C 62.3023,57.154358 62.93364,57.118915 63.37889,57.083472 L 65.51213,60.18032 z M 36.58162,60.18032 L 49.14845,60.178105 C 49.47408,60.06956 49.73991,59.923357 50.0744,59.571141 C 50.42884,59.201202 50.56175,58.917657 50.61491,58.749302 L 50.64371,56.184101 C 50.49086,55.951505 50.37789,55.814163 50.22282,55.67239 C 49.89276,55.375553 49.36111,55.052134 48.55256,54.990108 C 47.42281,54.903716 46.72724,55.094223 46.18894,55.34454 C 45.58198,55.630301 45.13672,55.998024 44.58292,56.241696 C 43.12311,56.879673 41.58797,57.083472 40.42721,57.129991 C 39.79145,57.154358 39.1579,57.118915 38.71265,57.083472 L 36.58162,60.18032"
     id="path3056"
     style="fill:#faa61a;fill-opacity:1;fill-rule:evenodd;stroke:none" />
  <path
     d="M 50.63928,54.985678 L 50.63928,28.689047 C 50.63928,28.689047 50.07883,27.614675 48.50161,27.50613 C 46.20002,27.344421 45.49559,28.343476 44.43672,28.806452 C 41.93798,29.894115 38.89208,29.61943 38.89208,29.61943 L 38.89208,56.312582 C 38.89208,56.312582 42.04652,56.593913 44.43672,55.415427 C 45.47122,54.903716 46.26205,54.039788 48.43294,54.192637 C 50.01238,54.303397 50.63928,54.985678 50.63928,54.985678 z M 51.45447,54.985678 L 51.45447,28.689047 C 51.45447,28.689047 52.01492,27.614675 53.59214,27.50613 C 55.89373,27.344421 56.59817,28.343476 57.65703,28.806452 C 60.15578,29.894115 63.20167,29.61943 63.20167,29.61943 L 63.20167,56.312582 C 63.20167,56.312582 60.04723,56.593913 57.65703,55.415427 C 56.62253,54.903716 55.83171,54.039788 53.66081,54.192637 C 52.08137,54.303397 51.45447,54.985678 51.45447,54.985678"
     id="path3058"
     style="fill:#ffffff;fill-opacity:1;fill-rule:evenodd;stroke:none" />
  <path
     d="M 39.99082,32.700773 C 39.99082,32.700773 41.15601,33.048559 43.13197,32.468177 C 44.72913,31.998554 45.63736,31.105829 46.97534,31.006145 C 48.31332,30.906461 49.59592,31.240956 49.59592,31.240956 C 49.59592,31.240956 48.48611,30.332725 47.21015,30.326079 C 45.41362,30.312788 44.39906,31.271969 42.88608,31.821339 C 41.01202,32.501405 39.99082,32.700773 39.99082,32.700773 z"
     id="path6766"
     style="fill:#000000;fill-opacity:1;fill-rule:evenodd;stroke:none" />
  <use
     id="use7020"
     x="0"
     y="0"
     width="744.09448"
     height="1052.3622"
     xlink:href="#path6766" />
  <use
     transform="translate(0,2.5773116)"
     id="use7022"
     x="0"
     y="0"
     width="744.09448"
     height="1052.3622"
     xlink:href="#path6766" />
  <use
     transform="translate(0,5.1546232)"
     id="use7024"
     x="0"
     y="0"
     width="744.09448"
     height="1052.3622"
     xlink:href="#path6766" />
  <use
     transform="translate(0,7.731935)"
     id="use7026"
     x="0"
     y="0"
     width="744.09448"
     height="1052.3622"
     xlink:href="#path6766" />
  <use
     transform="translate(0,10.309247)"
     id="use7028"
     x="0"
     y="0"
     width="744.09448"
     height="1052.3622"
     xlink:href="#path6766" />
  <use
     transform="translate(0,12.886558)"
     id="use7030"
     x="0"
     y="0"
     width="744.09448"
     height="1052.3622"
     xlink:href="#path6766" />
  <use
     transform="translate(0,15.46387)"
     id="use7032"
     x="0"
     y="0"
     width="744.09448"
     height="1052.3622"
     xlink:href="#path6766" />
  <use
     transform="translate(0,18.041181)"
     id="use7034"
     x="0"
     y="0"
     width="744.09448"
     height="1052.3622"
     xlink:href="#path6766" />
  <use
     transform="translate(0,20.618492)"
     id="use7036"
     x="0"
     y="0"
     width="744.09448"
     height="1052.3622"
     xlink:href="#path6766" />
  <use
     transform="matrix(-1,0,0,1,102.0734,0)"
     id="use7038"
     x="0"
     y="0"
     width="744.09448"
     height="1052.3622"
     xlink:href="#path6766" />
  <use
     transform="matrix(-1,0,0,1,102.0734,2.5773116)"
     id="use7040"
     x="0"
     y="0"
     width="744.09448"
     height="1052.3622"
     xlink:href="#path6766" />
  <use
     transform="matrix(-1,0,0,1,102.0734,5.1546232)"
     id="use7042"
     x="0"
     y="0"
     width="744.09448"
     height="1052.3622"
     xlink:href="#path6766" />
  <use
     transform="matrix(-1,0,0,1,102.0734,7.731935)"
     id="use7044"
     x="0"
     y="0"
     width="744.09448"
     height="1052.3622"
     xlink:href="#path6766" />
  <use
     transform="matrix(-1,0,0,1,102.0734,10.309247)"
     id="use7046"
     x="0"
     y="0"
     width="744.09448"
     height="1052.3622"
     xlink:href="#path6766" />
  <use
     transform="matrix(-1,0,0,1,102.0734,12.886558)"
     id="use7048"
     x="0"
     y="0"
     width="744.09448"
     height="1052.3622"
     xlink:href="#path6766" />
  <use
     transform="matrix(-1,0,0,1,102.0734,15.46387)"
     id="use7050"
     x="0"
     y="0"
     width="744.09448"
     height="1052.3622"
     xlink:href="#path6766" />
  <use
     transform="matrix(-1,0,0,1,102.0734,18.041181)"
     id="use7052"
     x="0"
     y="0"
     width="744.09448"
     height="1052.3622"
     xlink:href="#path6766" />
  <use
     transform="matrix(-1,0,0,1,102.0734,20.618492)"
     id="use7054"
     x="0"
     y="0"
     width="744.09448"
     height="1052.3622"
     xlink:href="#path6766" />
  <path
     d="M 55.88266,82.460795 L 51.04688,78.945274 L 46.20888,82.460795 L 48.05636,76.774379 L 43.22058,73.258857 L 49.1994,73.258857 L 51.04688,67.574656 L 52.89435,73.258857 L 58.87318,73.258857 L 54.03518,76.774379 L 55.88266,82.460795"
     id="path7080"
     style="fill:#faa61a;fill-opacity:1;fill-rule:evenodd;stroke:none" />
  <use
     transform="translate(24.680652,24.852321)"
     id="use7082"
     x="0"
     y="0"
     width="744.09448"
     height="1052.3622"
     xlink:href="#path7076" />
  <use
     transform="translate(-24.680635,24.852321)"
     id="use7084"
     x="0"
     y="0"
     width="744.09448"
     height="1052.3622"
     xlink:href="#path7076" />
  <use
     transform="matrix(-1,0,0,1,102.0296,0)"
     id="use7090"
     x="0"
     y="0"
     width="744.09448"
     height="1052.3622"
     xlink:href="#path7088" />
  <path
     d="M 17.21857,42.011255 C 14.5559,38.411557 12.06823,34.255843 11.17772,29.858672 C 9.78879,23.004845 14.67109,25.585552 14.89704,28.990314 C 15.05653,31.380514 13.18026,30.919752 12.735,29.541898 C 13.53912,32.395075 14.15716,33.985588 15.58596,36.378004 L 15.58596,27.829549 C 15.4021,25.645363 15.29799,24.637447 14.61571,22.634907 C 14.87489,24.254218 13.12931,25.851376 12.06158,23.357062 C 10.53753,19.803882 14.2214,14.494049 16.34578,22.125411 C 16.94388,24.274154 17.09452,25.536818 17.20306,27.758663 L 17.21857,42.011255 z M 23.18631,75.762033 C 28.29678,78.486728 31.75692,78.249701 35.26801,81.045283 C 40.73955,85.404795 35.23035,86.576636 32.86674,84.115549 C 31.20755,82.387694 33.00408,81.652248 34.27782,82.28801 C 31.82781,80.619965 30.24837,80.309837 27.6145,79.39496 C 27.6145,79.39496 31.65281,85.477897 37.45441,88.698797 C 36.34238,87.509235 36.54397,85.338339 38.96961,86.563345 C 42.42089,88.306706 42.89937,94.764013 36.43764,90.180765 C 27.80722,84.060169 23.18631,75.762033 23.18631,75.762033 z M 30.09331,76.807607 C 26.08823,75.673425 21.7996,74.417407 19.3651,71.019291 C 15.29356,65.335089 19.54231,65.465786 21.76416,67.949025 C 23.36353,69.734475 21.58251,70.545238 20.35307,69.776564 C 22.45751,72.036067 23.90847,72.793665 26.09709,73.684176 C 26.09709,73.684176 22.86954,67.328769 18.70275,62.849636 C 19.76605,64.094578 19.6132,66.207878 17.18977,64.982873 C 13.73849,63.239511 14.6002,55.324604 19.72174,61.367667 C 21.45403,63.412296 22.96701,65.596483 24.24296,67.437313 C 26.81481,71.149988 28.54931,74.178165 30.09331,76.807607 z M 11.39259,35.463126 C 13.83153,40.713149 16.32141,42.370118 17.44009,46.716339 C 19.18566,53.485988 14.24577,51.131231 13.84039,47.744191 C 13.55684,45.365067 15.32014,45.797031 15.90274,47.11286 C 15.03881,44.421392 14.28564,43.271704 12.735,40.954605 C 12.735,40.954605 12.44038,47.843875 14.53153,54.210358 C 14.40083,52.575541 16.15084,50.568571 17.35148,53.003075 C 19.05718,56.474292 14.84387,62.06767 12.79703,54.416372 C 10.43563,45.586587 11.39259,35.463126 11.39259,35.463126 z M 13.22235,4.8402106 C 12.25209,7.2946514 11.60747,9.7823203 11.35272,11.804797 C 10.23847,20.023187 16.4366,16.22412 16.63154,12.600054 C 16.80211,9.423458 13.98438,10.457956 13.3464,11.995304 C 13.48817,11.038338 13.55241,10.573146 13.92235,9.2152293 C 14.18817,8.2449719 14.5714,7.2769298 14.90811,6.5038253 C 15.68122,6.167115 16.64262,5.7772399 17.61509,5.5136312 C 18.973,5.1414777 19.4382,5.0772369 20.39516,4.9376793 C 18.85781,5.5756567 17.82332,8.3911751 20.99991,8.2228199 C 24.62398,8.0256672 28.42305,1.8275395 20.20466,2.9439999 C 18.17996,3.1987478 15.67457,3.8699532 13.22235,4.8402106 z"
     id="path7092"
     style="fill:#ee3124;fill-opacity:1;fill-rule:evenodd;stroke:none" />
  <use
     transform="matrix(-1,0,0,1,102.249,0)"
     id="use7094"
     x="0"
     y="0"
     width="744.09448"
     height="1052.3622"
     xlink:href="#path7092" />
  <path
     d="M 51.01143,99.424792 C 53.41935,98.379218 55.45734,97.171934 57.06114,95.924777 C 63.66244,90.90292 56.42538,89.031077 53.89341,91.631721 C 51.70479,93.877933 54.10385,94.84819 55.98899,94.190276 C 55.98899,94.190276 54.6643,95.098508 53.37727,95.842815 C 52.56207,96.310222 51.68485,96.788705 50.98264,97.103263 C 50.28263,96.788705 49.4032,96.310222 48.59022,95.842815 C 47.30319,95.098508 45.9785,94.190276 45.9785,94.190276 C 47.86142,94.84819 50.2627,93.877933 48.07408,91.631721 C 45.54211,89.031077 38.30505,90.90292 44.90413,95.924777 C 46.51015,97.171934 48.6013,98.379218 51.01143,99.424792 z"
     id="path7096"
     style="fill:#ee3124;fill-opacity:1;fill-rule:evenodd;stroke:none" />
</svg>
